<svg xmlns="http://www.w3.org/2000/svg" width="132" height="16" viewBox="0 0 131.9 16.4"><style>.a{fill:#282e32;}</style><g><path d="M0 0.7h13.1v4.2H5.1v1.6h7.5v3.7H5.1v1.7h8.2v4.2H0V0.7z" class="a"/><path d="M14.5 4.1h5v1.7c0.8-1 2-2 3.7-2 2.5 0 4.1 1.7 4.1 4.4v7.9h-5V9.8c0-1-0.6-1.6-1.4-1.6 -0.7 0-1.4 0.6-1.4 1.6v6.3H14.5V4.1z" class="a"/><path d="M28.3 12.9l4.9-5h-4.7V4.1h11.6v3.1l-4.9 5h4.9v3.9H28.3V12.9z" class="a"/><path d="M40.4 10.1v0c0-3.4 2.8-6.3 6.8-6.3 3.9 0 6.7 2.9 6.7 6.3v0c0 3.4-2.8 6.3-6.8 6.3C43.2 16.4 40.4 13.5 40.4 10.1zM49.1 10.1v0c0-1.2-0.9-2.1-2-2.1 -1.1 0-1.9 1-1.9 2.1v0c0 1.2 0.9 2.1 2 2.1C48.3 12.2 49.1 11.2 49.1 10.1z" class="a"/><path d="M55.1 0.7h5.9c6.1 0 9.2 3 9.2 7.6v0c0 4.6-3.1 7.8-9.3 7.8h-5.7V0.7zM61.1 11.6c2.4 0 3.9-1 3.9-3.2V8.3c0-2.2-1.5-3.2-3.9-3.2h-0.9v6.4H61.1z" class="a"/><path d="M71.4 0h5.2v3.2h-5.2V0zM71.5 4.1h5v12h-5V4.1z" class="a"/><path d="M77.6 12.7v0c0-2.4 1.8-3.7 4.6-3.7 1 0 2.3 0.2 2.8 0.4v-0.2c0-1.1-0.7-1.7-2.2-1.7 -1.2 0-2.3 0.3-3.3 0.7l-0.9-3.3c1.4-0.5 3-0.9 5.1-0.9 2.4 0 4 0.5 5.1 1.6 0.9 0.9 1.3 2.1 1.3 3.8v6.8h-5v-1.2c-0.8 0.9-2 1.5-3.4 1.5C79.2 16.4 77.6 15 77.6 12.7zM85.1 11.6v-0.5c-0.3-0.1-0.7-0.2-1.1-0.2 -1 0-1.5 0.6-1.5 1.3v0c0 0.7 0.5 1.2 1.1 1.2C84.4 13.5 85.1 12.8 85.1 11.6z" class="a"/><path d="M91 12.9l4.9-5h-4.7V4.1h11.6v3.1l-4.9 5h4.9v3.9H91V12.9z" class="a"/><path d="M104.1 14.6h1.3v1.5h-1.3V14.6z" class="a"/><path d="M107.2 12.4v0c0-2.4 1.8-3.8 3.5-3.8 1.4 0 2.3 0.7 2.8 1.6V5.6h1.1v10.5h-1.1v-1.5c-0.6 0.9-1.5 1.7-2.8 1.7C109 16.2 107.2 14.8 107.2 12.4zM113.6 12.4v0c0-1.7-1.3-2.8-2.7-2.8 -1.4 0-2.6 1.1-2.6 2.9v0c0 1.8 1.2 2.9 2.6 2.9C112.3 15.2 113.6 14.1 113.6 12.4z" class="a"/><path d="M120.4 15.3c1 0 1.7-0.4 2.3-1l0.7 0.6c-0.7 0.8-1.6 1.4-3 1.4 -2 0-3.7-1.6-3.7-3.9 0-2.1 1.5-3.9 3.6-3.9 2.2 0 3.5 1.8 3.5 3.9 0 0.1 0 0.2 0 0.4h-5.9C117.9 14.4 119.1 15.3 120.4 15.3zM122.5 11.9c-0.1-1.3-0.9-2.5-2.4-2.5 -1.3 0-2.2 1.1-2.4 2.5H122.5z" class="a"/><path d="M124.5 8.7h1.2l2.5 6.1 2.5-6.1h1.2l-3.2 7.5h-1L124.5 8.7z" class="a"/></g></svg>
